<?xml version="1.0" encoding="UTF-8" standalone="no"?>
<!DOCTYPE svg PUBLIC "-//W3C//DTD SVG 1.1//EN" "http://www.w3.org/Graphics/SVG/1.1/DTD/svg11.dtd">
<svg width="38pt" height="100%" viewBox="0 0 996 1021" version="1.1" xmlns="http://www.w3.org/2000/svg" xmlns:xlink="http://www.w3.org/1999/xlink" xml:space="preserve" xmlns:serif="http://www.serif.com/" style="fill-rule:evenodd;clip-rule:evenodd;stroke-linejoin:round;stroke-miterlimit:2;">
    <g transform="matrix(4.16667,0,0,4.16667,-254.167,-1704.29)">
        <g transform="matrix(1,0,0,1,-83,39.0306)">
            <g id="Layer3">
                <path d="M357,370L383,467L368,492L383,517L356.912,614.969L259,588L245,563L215,563L144,492L215,421L245,421L258.5,396L357,370ZM356,518C356,518 357.739,514.156 351.361,536.722C343.944,562.966 316.865,578.426 290.495,571.471C268.432,565.653 247,560 247,560C247,560 230.959,543.719 214.575,527.091C195.397,507.627 195.396,476.372 214.573,456.908C230.745,440.492 247,424.485 247,424.485C247,424.485 268.777,418.84 291.467,413.076C317.866,406.369 344.776,422.026 351.992,448.291C358.074,470.429 363.5,492 363.5,492L362.5,498.5L258,439.5L239,451L239,542.5L258,553L316,520L297,508L258,531L258.5,462.5L356,518Z"/>
            </g>
        </g>
    </g>
</svg>
