<svg xmlns="http://www.w3.org/2000/svg" viewBox="0 0 900.13 919.32"><defs><style>.cls-1{fill:#5357ff;fill-rule:evenodd;}</style></defs><g id="Layer_2" data-name="Layer 2"><g id="Layer_1-2" data-name="Layer 1"><path class="cls-1" d="M462.19,11.21A338.39,338.39,0,0,1,878.75,264.32q2.34,10.44,4.57,20.37a291.4,291.4,0,0,1-29.61,205.36c-7.22,13-12.2,22-12.2,22l12.33,9.45a118.18,118.18,0,0,1,42.3,124.2c-1,3.68-2,7.47-3,11.33A353.22,353.22,0,0,1,458,906.64h0A214.17,214.17,0,0,1,326.45,802l-13.83-25.56-27.52-.86A275.66,275.66,0,0,1,98.8,695l-2-2c-129.11-129.11-129.11-338.43,0-467.54h0a270.27,270.27,0,0,1,191.1-79.15h20.28l13.08-24.21A225.55,225.55,0,0,1,462.18,11.21Zm265.19,548a186.68,186.68,0,0,1,21.58,17l.18.18a103.71,103.71,0,0,1,9.24,143.1c-60.49,71.33-161.33,113.24-249.65,89.94h0A723.34,723.34,0,0,1,177.88,617.74c-1.25-1.27-2.51-2.54-3.76-3.82-84.53-85.78-84.54-223.54,0-309.33h0a718.83,718.83,0,0,1,335-192.19l3.92-1c116.35-29.56,235,39.44,266.76,155.2,6,21.89,11.89,43.66,17.37,64.25A79.69,79.69,0,0,1,701.89,429h0a72.67,72.67,0,0,1-23.13-9.9L365.51,214.51,281.77,265.2V668.48l83.74,46.28L621.14,569.31h0a162.25,162.25,0,0,0-169-2.58l-86.58,51.06,2.2-301.91Z"/></g></g></svg>