<?xml version="1.0" standalone="no"?>
<!DOCTYPE svg PUBLIC "-//W3C//DTD SVG 20010904//EN"
 "http://www.w3.org/TR/2001/REC-SVG-20010904/DTD/svg10.dtd">
<svg version="1.0" xmlns="http://www.w3.org/2000/svg"
 width="919.000000pt" height="919.000000pt" viewBox="0 0 919.000000 919.000000"
 preserveAspectRatio="xMidYMid meet">
<metadata>
Created by potrace 1.11, written by Peter Selinger 2001-2013
</metadata>
<g transform="translate(0.000000,919.000000) scale(0.100000,-0.100000)"
fill="#000000" stroke="none">
<path d="M5348 9185 c-1 -1 -37 -6 -78 -10 -93 -8 -135 -13 -180 -20 -19 -3
-46 -7 -60 -9 -14 -2 -61 -11 -105 -19 -44 -9 -91 -19 -105 -21 -42 -9 -114
-26 -130 -32 -8 -3 -15 -5 -15 -4 0 0 -33 -11 -72 -24 -40 -14 -73 -22 -73
-18 0 4 -4 2 -8 -3 -4 -6 -25 -16 -47 -24 -167 -56 -468 -230 -610 -352 -119
-102 -233 -214 -290 -283 -16 -20 -40 -48 -52 -61 -13 -13 -23 -29 -23 -35 0
-5 -3 -10 -7 -10 -5 0 -28 -30 -53 -68 -24 -37 -47 -69 -50 -72 -3 -3 -10 -14
-16 -25 -26 -48 -39 -70 -44 -75 -3 -3 -12 -19 -21 -35 -63 -123 -95 -180
-101 -183 -4 -2 -12 -19 -18 -38 -8 -24 -18 -34 -33 -35 -12 0 -107 -2 -212
-4 -104 -2 -206 -6 -225 -9 -19 -2 -62 -7 -95 -11 -70 -7 -79 -8 -187 -30 -96
-20 -222 -53 -323 -86 -38 -12 -73 -22 -77 -21 -5 1 -8 -2 -8 -6 0 -5 -6 -9
-12 -9 -7 0 -35 -10 -63 -23 -27 -12 -59 -26 -70 -30 -31 -12 -199 -94 -205
-100 -3 -3 -23 -14 -45 -25 -48 -24 -298 -190 -339 -225 -16 -14 -38 -33 -48
-42 -10 -10 -20 -18 -22 -18 -11 0 -181 -165 -271 -262 -74 -80 -133 -152
-208 -253 -37 -49 -72 -95 -77 -102 -6 -7 -15 -24 -22 -38 -6 -14 -15 -25 -20
-25 -4 0 -8 -7 -8 -15 0 -8 -4 -15 -10 -15 -5 0 -10 -7 -10 -15 0 -8 -4 -15
-10 -15 -5 0 -10 -5 -10 -11 0 -6 -8 -23 -19 -37 -23 -33 -153 -276 -156 -292
-1 -3 -14 -32 -29 -65 -16 -33 -29 -65 -30 -71 -1 -7 -8 -19 -15 -28 -7 -9
-11 -16 -8 -16 4 0 -2 -19 -12 -43 -42 -98 -123 -369 -146 -487 -2 -12 -6 -29
-9 -38 -3 -9 -7 -33 -10 -52 -3 -19 -8 -46 -12 -60 -3 -14 -7 -47 -9 -75 -2
-27 -4 -50 -5 -50 -12 0 -25 -219 -25 -430 0 -216 9 -355 30 -475 3 -15 7 -42
9 -61 3 -19 12 -70 22 -114 9 -44 18 -89 19 -100 2 -11 7 -31 13 -45 5 -14 10
-29 11 -35 10 -58 62 -224 109 -345 20 -52 37 -97 37 -100 1 -3 16 -36 35 -75
18 -38 34 -72 34 -75 2 -6 74 -145 96 -185 82 -142 162 -267 234 -360 17 -22
35 -46 41 -53 5 -7 18 -22 28 -33 9 -10 17 -21 17 -24 0 -3 8 -13 18 -23 9
-10 44 -49 76 -86 145 -166 393 -392 497 -453 16 -10 29 -21 29 -26 0 -4 5 -5
10 -2 6 3 10 2 10 -3 0 -5 16 -17 35 -28 19 -10 35 -22 35 -26 0 -5 4 -8 9 -8
5 0 38 -17 72 -38 209 -126 532 -259 751 -308 10 -2 28 -6 40 -9 13 -3 37 -8
53 -10 17 -3 37 -8 45 -10 8 -2 33 -7 55 -10 23 -3 50 -7 60 -9 105 -19 439
-41 571 -37 16 0 29 -15 56 -67 48 -93 107 -200 135 -244 13 -21 23 -40 23
-42 0 -18 166 -241 234 -315 78 -84 236 -235 236 -225 0 2 8 -4 19 -14 88 -82
336 -232 484 -293 39 -16 80 -34 89 -39 10 -6 27 -10 37 -10 11 0 22 -4 25 -9
3 -5 30 -15 58 -21 29 -7 60 -16 68 -20 8 -5 29 -10 47 -13 17 -3 36 -8 41
-11 5 -3 24 -8 43 -11 19 -3 41 -8 49 -10 8 -2 27 -7 43 -10 15 -3 37 -7 50
-9 61 -12 150 -27 184 -31 21 -2 52 -6 68 -9 87 -14 203 -20 410 -20 238 -1
356 6 505 29 25 4 56 8 70 10 14 2 25 4 25 5 0 1 11 3 25 5 24 2 128 23 198
39 91 22 340 94 357 104 6 4 15 7 20 8 23 4 208 81 305 127 58 28 107 51 110
52 7 1 91 47 115 62 11 7 27 15 35 19 8 4 39 22 68 41 29 18 55 33 58 33 17 0
358 252 395 292 9 10 19 18 22 18 22 0 304 285 407 410 25 30 57 69 72 85 16
17 28 33 28 37 0 4 6 13 13 20 17 17 157 217 181 260 11 18 19 36 18 41 -1 4
2 7 6 7 4 0 24 29 43 65 18 36 37 65 42 65 4 0 7 4 7 10 0 5 28 67 62 137 35
71 63 130 63 133 1 3 8 21 16 40 9 19 28 69 43 110 15 41 31 84 36 95 5 11 14
38 21 60 6 22 14 44 17 50 3 5 7 16 8 25 1 8 18 70 37 137 19 68 32 125 29
128 -3 3 0 5 7 5 7 0 10 3 8 8 -3 4 1 41 8 82 28 153 9 380 -46 550 -23 72
-96 227 -116 248 -7 7 -13 17 -13 22 0 5 -6 15 -12 22 -7 7 -25 31 -40 53 -52
75 -177 194 -281 268 -51 36 -57 44 -52 66 4 14 12 32 18 39 37 45 227 419
227 447 0 8 5 15 10 15 6 0 10 6 10 13 0 7 12 42 26 78 14 35 27 71 29 79 1 8
12 42 23 75 19 56 49 166 58 208 2 10 6 27 9 37 3 10 8 31 10 46 5 34 23 140
29 171 3 12 8 57 11 100 4 43 9 94 11 113 7 64 2 455 -6 455 0 0 -3 23 -5 50
-7 99 -28 221 -75 425 -12 52 -24 104 -26 115 -3 11 -6 32 -9 47 -2 14 -8 36
-15 47 -6 12 -9 25 -7 29 3 4 0 18 -6 32 -5 14 -11 31 -13 38 -5 26 -86 267
-99 297 -20 44 -48 109 -50 115 0 3 -13 30 -27 60 -14 30 -28 65 -32 78 -4 12
-12 22 -17 22 -5 0 -9 8 -9 18 0 10 -4 22 -9 28 -5 5 -21 30 -35 57 -65 118
-79 142 -85 147 -3 3 -12 15 -18 28 -7 12 -19 32 -25 45 -7 12 -15 24 -18 27
-3 3 -25 34 -50 70 -24 36 -48 70 -52 75 -5 6 -29 37 -54 70 -101 134 -255
300 -393 424 -41 36 -81 73 -90 81 -9 8 -45 38 -81 65 -36 28 -67 52 -70 56
-3 3 -34 25 -70 50 -36 24 -71 49 -78 56 -6 6 -21 15 -32 18 -11 3 -20 11 -20
16 0 5 -4 9 -9 9 -5 0 -47 23 -92 51 -165 102 -593 299 -651 299 -8 0 -18 3
-22 8 -4 4 -11 7 -14 8 -4 0 -33 8 -66 18 -32 10 -66 20 -75 21 -9 2 -16 4
-16 5 0 1 -7 3 -15 5 -8 2 -53 12 -100 23 -95 23 -177 40 -230 47 -19 3 -44 7
-55 9 -11 2 -49 7 -85 11 -36 4 -78 10 -95 12 -38 5 -532 13 -537 8z m612
-1050 c116 -12 173 -20 210 -29 14 -3 36 -8 50 -10 22 -5 128 -31 155 -40 6
-1 30 -8 55 -15 58 -17 220 -81 290 -116 96 -48 248 -136 261 -151 6 -8 16
-14 21 -14 14 0 143 -101 237 -185 124 -111 216 -215 309 -345 29 -41 59 -82
66 -90 7 -9 15 -22 19 -30 4 -8 20 -37 37 -65 82 -137 220 -471 204 -496 -3
-5 -1 -9 4 -9 5 0 12 -12 15 -27 3 -16 8 -39 12 -53 3 -14 8 -35 11 -48 2 -13
11 -42 18 -65 8 -23 18 -58 22 -77 10 -44 8 -37 23 -90 7 -25 15 -52 17 -60 2
-8 13 -49 25 -90 53 -191 63 -245 63 -350 0 -107 -19 -228 -42 -265 -4 -5 -7
-16 -8 -23 -3 -18 -55 -124 -68 -139 -6 -6 -22 -28 -36 -48 -101 -144 -281
-263 -465 -306 -73 -17 -253 -19 -327 -4 -92 20 -193 58 -233 88 -5 4 -68 45
-140 91 -71 47 -135 89 -142 95 -7 6 -14 11 -17 11 -3 0 -52 32 -110 70 -58
39 -110 70 -115 70 -5 0 -11 3 -13 8 -1 4 -41 32 -88 62 -47 30 -89 58 -95 63
-33 24 -333 219 -350 226 -11 5 -30 17 -42 27 -12 11 -57 41 -100 68 -43 27
-131 85 -196 128 -64 43 -122 78 -127 78 -6 0 -10 5 -10 10 0 6 -7 10 -15 10
-8 0 -15 4 -15 9 0 5 -13 14 -30 21 -16 7 -30 16 -30 21 0 5 -6 9 -13 9 -7 0
-23 9 -35 20 -12 11 -24 20 -28 20 -4 0 -29 16 -55 35 -27 19 -54 35 -59 35
-6 0 -10 4 -10 9 0 5 -9 13 -21 16 -12 4 -29 14 -39 23 -9 10 -51 38 -91 63
-41 26 -94 59 -118 75 -24 16 -51 34 -60 39 -9 6 -68 44 -131 85 -63 41 -157
103 -210 137 -52 34 -102 67 -110 72 -8 6 -85 56 -170 111 -85 56 -181 119
-213 141 -32 21 -63 39 -68 39 -5 0 -9 5 -9 10 0 6 -7 10 -15 10 -8 0 -15 3
-15 8 0 4 -14 13 -31 21 -30 13 -34 11 -180 -78 -83 -50 -154 -91 -160 -91 -5
0 -9 -4 -9 -10 0 -5 -11 -12 -25 -16 -14 -3 -25 -9 -25 -14 0 -4 -18 -15 -40
-25 -22 -10 -40 -22 -40 -27 0 -4 -5 -8 -11 -8 -6 0 -29 -13 -52 -28 -23 -15
-53 -33 -67 -40 -14 -6 -68 -39 -120 -72 -52 -34 -103 -64 -112 -67 -12 -3
-18 -16 -19 -37 -1 -40 -1 -3999 0 -4008 1 -5 8 -8 16 -8 8 0 15 -3 15 -7 0
-5 24 -19 53 -33 28 -14 54 -27 57 -30 5 -5 22 -15 68 -40 185 -100 299 -164
306 -171 6 -5 18 -9 27 -9 9 0 20 -7 23 -16 4 -9 9 -14 13 -11 3 4 18 -2 32
-11 14 -10 44 -27 66 -37 22 -11 46 -26 53 -32 7 -7 24 -16 38 -19 13 -3 24
-10 24 -14 0 -4 11 -11 25 -14 25 -6 45 2 150 64 28 16 64 36 80 45 17 8 53
29 80 45 28 16 58 33 68 36 9 4 17 10 17 15 0 5 5 9 10 9 6 0 73 36 150 80 77
44 144 80 150 80 5 0 10 5 10 10 0 6 4 10 9 10 5 0 49 23 98 51 48 28 107 62
131 75 65 37 135 76 157 88 11 6 22 14 25 17 3 3 27 16 53 30 26 13 57 28 67
34 11 5 20 13 20 17 0 5 5 8 10 8 9 0 61 29 192 105 9 6 39 22 65 36 26 15 64
36 83 47 19 12 97 56 173 99 75 43 163 93 195 111 31 18 64 35 72 39 8 4 17 9
20 13 3 3 34 21 70 40 36 18 71 40 78 47 7 7 17 13 22 13 5 0 43 20 84 45 42
25 78 45 80 45 1 0 36 19 78 43 60 34 72 45 62 55 -7 7 -17 12 -23 12 -5 0
-11 4 -13 8 -5 12 -220 113 -270 127 -5 2 -10 4 -13 5 -3 1 -9 4 -15 5 -5 1
-12 4 -15 5 -3 1 -8 3 -12 4 -5 2 -28 8 -53 15 -25 7 -53 15 -62 17 -10 2 -26
6 -37 8 -21 5 -81 15 -126 22 -29 4 -190 16 -210 15 -111 -4 -233 -16 -290
-28 -16 -3 -39 -7 -50 -9 -11 -1 -20 -3 -20 -4 0 -1 -10 -3 -21 -5 -39 -8
-188 -57 -234 -77 -134 -59 -415 -215 -462 -256 -10 -8 -18 -11 -18 -7 0 4 -8
1 -17 -7 -10 -8 -101 -64 -203 -123 -263 -153 -354 -208 -362 -220 -11 -14
-11 -17 -8 450 5 1179 7 1373 14 1383 4 7 1 12 -6 12 -10 0 -10 2 1 9 7 5 9
11 4 14 -11 7 -8 90 3 108 4 8 3 9 -4 5 -9 -5 -9 -1 -3 17 5 13 5 30 1 37 -5
8 -5 19 0 25 5 6 5 17 1 24 -5 8 -5 27 -1 42 5 17 5 31 -1 34 -5 4 -5 14 2 27
8 15 8 19 0 14 -7 -5 -9 0 -3 16 4 13 7 197 7 410 0 214 3 388 6 388 4 0 12
-7 19 -15 7 -8 18 -15 25 -15 8 0 15 -3 17 -7 4 -11 127 -93 137 -93 5 0 11
-4 13 -8 1 -4 26 -23 53 -41 246 -165 290 -196 293 -203 2 -4 7 -8 12 -8 11 0
264 -171 268 -182 2 -4 8 -6 13 -2 5 3 9 0 9 -5 0 -6 6 -11 14 -11 8 0 16 -4
18 -8 2 -5 107 -78 233 -162 127 -85 232 -157 235 -160 3 -3 115 -79 250 -169
135 -91 247 -167 250 -170 3 -3 17 -12 32 -20 15 -8 37 -22 47 -33 11 -10 24
-18 29 -18 4 0 17 -8 28 -18 10 -9 42 -32 69 -49 28 -18 55 -36 60 -40 46 -35
105 -73 113 -73 6 0 12 -4 14 -8 2 -4 57 -44 123 -87 66 -44 122 -82 125 -85
3 -3 66 -46 140 -95 74 -50 137 -92 140 -95 3 -3 57 -40 120 -82 63 -42 175
-118 249 -167 73 -50 135 -91 137 -91 3 0 10 -5 17 -10 46 -39 61 -50 68 -50
4 0 14 -6 21 -12 24 -23 108 -78 118 -78 6 0 10 -3 10 -7 0 -5 23 -21 50 -38
27 -16 50 -33 50 -37 0 -5 6 -8 14 -8 8 0 16 -3 18 -7 2 -5 21 -21 43 -38 93
-69 201 -178 253 -255 20 -30 43 -61 50 -68 6 -7 12 -19 12 -27 0 -7 4 -15 8
-17 11 -4 77 -162 91 -218 52 -209 45 -434 -21 -615 -23 -64 -82 -185 -90
-185 -4 0 -8 -6 -8 -14 0 -25 -121 -173 -246 -300 -48 -49 -177 -162 -195
-170 -10 -5 -19 -13 -19 -17 0 -12 -225 -171 -332 -234 -9 -5 -38 -21 -65 -35
-26 -14 -50 -27 -53 -30 -6 -6 -91 -48 -185 -91 -82 -37 -277 -107 -320 -115
-16 -3 -34 -9 -41 -14 -6 -6 -14 -7 -17 -4 -3 3 -12 2 -19 -2 -7 -5 -15 -9
-18 -10 -3 0 -21 -4 -40 -8 -19 -4 -42 -8 -50 -10 -8 -1 -40 -8 -70 -14 -166
-34 -404 -45 -600 -28 -84 7 -291 45 -360 66 -19 6 -42 13 -50 15 -48 12 -210
62 -300 92 -58 19 -112 36 -120 39 -13 3 -77 26 -165 58 -38 14 -60 23 -98 40
-21 9 -42 16 -47 16 -5 0 -33 11 -62 24 -29 14 -102 46 -163 71 -60 26 -174
78 -253 116 -78 38 -145 69 -148 68 -4 0 -10 3 -13 8 -5 8 -97 58 -178 97 -13
6 -23 15 -23 19 0 5 -4 5 -10 2 -5 -3 -10 -1 -10 4 0 6 -5 11 -10 11 -6 0 -57
27 -113 61 -56 33 -111 66 -122 72 -44 26 -370 240 -375 246 -3 3 -34 26 -70
51 -74 50 -73 49 -120 88 -19 15 -51 39 -70 52 -30 21 -173 135 -206 165 -13
11 -43 36 -94 79 -46 37 -184 162 -226 204 -19 17 -38 32 -43 32 -5 0 -13 9
-16 20 -3 11 -10 20 -14 20 -8 0 -208 200 -271 270 -17 19 -56 69 -87 110 -31
41 -62 78 -67 82 -7 5 -7 8 -1 8 6 0 6 3 -1 8 -18 13 -125 193 -170 287 -35
75 -85 196 -98 240 -2 6 -6 17 -9 25 -16 44 -65 234 -73 282 -2 15 -6 43 -9
61 -23 139 -32 347 -21 502 6 82 22 220 26 220 1 0 3 14 5 30 4 39 29 138 62
245 15 47 27 87 28 90 13 43 93 223 128 290 31 60 141 235 179 285 102 136
404 441 608 615 112 95 197 166 230 190 19 14 41 32 50 40 8 8 58 46 110 85
52 38 97 73 98 77 2 5 8 8 14 8 6 0 30 16 54 35 23 19 45 35 49 35 3 0 13 6
21 13 8 6 20 17 27 22 7 6 24 16 40 24 15 8 27 18 27 23 0 4 6 8 13 8 7 0 23
9 34 19 12 11 24 17 27 14 3 -4 6 -1 6 5 0 7 5 12 11 12 6 0 25 11 43 25 18
14 38 25 44 25 6 0 12 3 14 8 3 7 84 58 161 101 20 12 53 30 72 41 62 36 102
58 121 68 11 6 37 21 59 33 22 13 46 24 54 26 8 1 17 5 20 10 6 8 80 45 261
131 78 37 158 73 170 77 3 1 21 8 40 17 52 23 191 80 200 83 3 0 54 20 113 43
59 23 114 42 122 42 8 0 15 4 15 10 0 5 3 9 8 8 4 -1 39 8 77 21 39 13 75 24
80 26 6 1 18 5 27 9 9 4 22 9 30 10 7 2 40 11 73 21 33 10 65 20 70 21 6 2 66
19 135 39 69 19 136 37 150 40 14 2 36 7 50 10 37 9 160 33 200 39 19 3 73 8
120 12 47 3 86 7 87 8 5 4 237 -2 293 -9z"/>
</g>
</svg>
